<?xml version="1.0" encoding="UTF-8" standalone="no"?><!DOCTYPE svg PUBLIC "-//W3C//DTD SVG 1.1//EN" "http://www.w3.org/Graphics/SVG/1.1/DTD/svg11.dtd"><svg width="100%" height="100%" viewBox="0 0 40 40" version="1.1" xmlns="http://www.w3.org/2000/svg" xmlns:xlink="http://www.w3.org/1999/xlink" xml:space="preserve" xmlns:serif="http://www.serif.com/" style="fill-rule:evenodd;clip-rule:evenodd;stroke-linejoin:round;stroke-miterlimit:2;"><rect id="_180x180" serif:id="180x180" x="0" y="0" width="40" height="40" style="fill:none;"/><clipPath id="_clip1"><rect id="_180x1801" serif:id="180x180" x="0" y="0" width="40" height="40"/></clipPath><g clip-path="url(#_clip1)"><g><path d="M40,9.868c0,-5.446 -4.422,-9.868 -9.868,-9.868l-20.264,-0c-5.446,-0 -9.868,4.422 -9.868,9.868l0,20.264c0,5.446 4.422,9.868 9.868,9.868l20.264,-0c5.446,-0 9.868,-4.422 9.868,-9.868l0,-20.264Z" style="fill:#65c3c7;"/><g><path d="M18.985,13.607l-0,6.062c-0,0.27 -0.14,0.522 -0.371,0.664c-0.23,0.142 -0.518,0.155 -0.76,0.034l-10.042,-5.021c-0.265,-0.132 -0.432,-0.403 -0.432,-0.699l-0,-7.992c-0,-0.271 0.14,-0.523 0.37,-0.665c0.231,-0.142 0.518,-0.155 0.761,-0.034l8.314,4.157c1.324,0.662 2.16,2.015 2.16,3.494Zm-0,11.688l-0,6.061c-0,0.271 -0.14,0.522 -0.371,0.665c-0.23,0.142 -0.518,0.155 -0.76,0.034l-10.042,-5.021c-0.265,-0.133 -0.432,-0.403 -0.432,-0.699l-0,-7.993c-0,-0.271 0.14,-0.522 0.37,-0.664c0.231,-0.143 0.518,-0.156 0.761,-0.035l8.314,4.158c1.324,0.662 2.16,2.014 2.16,3.494Zm13.552,-18.64l0,19.68c0,0.296 -0.167,0.566 -0.431,0.699l-10.043,5.021c-0.242,0.121 -0.53,0.108 -0.76,-0.034c-0.23,-0.143 -0.37,-0.394 -0.37,-0.665l-0,-17.749c-0,-1.479 0.836,-2.832 2.159,-3.494l8.315,-4.157c0.242,-0.121 0.53,-0.108 0.76,0.034c0.23,0.142 0.37,0.394 0.37,0.665Zm0.083,22.743l0,2.631c0,0.136 -0.07,0.262 -0.185,0.333c-0.115,0.071 -0.259,0.077 -0.38,0.017l-1.198,-0.599c-0.105,-0.053 -0.234,-0.019 -0.3,0.08l-1.117,1.676c-0.096,0.143 -0.274,0.207 -0.438,0.157c-0.165,-0.05 -0.278,-0.202 -0.278,-0.374l0,-2.364c0,-0.148 0.084,-0.283 0.216,-0.349l3.115,-1.558c0.121,-0.06 0.265,-0.054 0.38,0.017c0.115,0.072 0.185,0.197 0.185,0.333Z" style="fill:#522868;"/></g></g></g></svg>